<?xml version="1.0" encoding="UTF-8"?><svg id="Layer_1" xmlns="http://www.w3.org/2000/svg" viewBox="0 0 1000 1000"><path d="M759.26,503.68c-1.13-1.53-1.55-3.25-1.28-4.93,2.36-14.67,.94-29.87,6.33-44.11,1.98-5.22,2.8-10.61,.31-15.84-3.01-6.32-4.45-13.07-3.49-19.79,1.66-11.67-4.06-22.55-2.83-34.1,.21-1.92-1.08-3.73-2.35-5.2-3.13-3.61-3.78-7.85-3.79-12.46-.05-21.24-2.21-42.16-10.22-62.1-1.59-3.96-1.64-7.91,.04-11.86,3.87-9.11,4.74-18.67,4.65-28.46-.06-6.58-2.35-11.11-8.29-14.67-14.75-8.86-28.95-18.55-42.63-29.06-10.95-8.42-14.9-20.43-18.59-32.67-1.86-6.16-4.58-11.73-9.79-15.39-15.35-10.77-30.28-22.27-48.14-28.89-5.1-1.89-9.72-4.64-14.04-8.05-6.66-5.24-14.03-8.79-22.85-8.86-3.83-.03-7.68-.97-11.49-1.65-7.29-1.31-14.71-2.55-21.91-.44-8.46,2.49-16.26,2.67-23.74-2.7-1.49-1.07-3.63-1.32-5.51-1.72-24.83-5.28-49.75-7.42-74.99-2.81-6.66,1.22-12.76,3.01-17.8,7.7-4.63,4.31-10.23,6.48-16.5,5.8-4.53-.49-7.75,1.12-10.96,4-8.79,7.88-16.4,17.03-26.18,23.84-11.19,7.8-20.97,17.14-29.73,27.62-9.3,11.14-19.9,20.5-34.03,25.36-6.03,2.07-11.25,6.05-16.45,9.78-10.22,7.33-15.65,16.86-13.96,29.88,1.21,9.28-1.49,17.57-7.13,25.06-1.96,2.6-3.29,5.67-4.81,8.58-4.6,8.74-6.96,18.65-12.76,26.68-5.98,8.28-6.53,17.05-5.14,26.54,2.16,14.76,4.35,29.53,2.33,44.54-.62,4.62-.56,9.41,.86,13.85,1.27,3.97,.75,6.02-3.23,8.11-6.65,3.49-9.48,9.75-8.47,17.11,1.49,10.94,3,21.92,5.51,32.65,3.1,13.32,1.4,25.54-4.68,37.69-4.56,9.1-9.65,18.42-7.45,29.27,.98,4.84,1.23,9.63,.58,14.44-2.25,16.5,1,32.49,4.82,48.3,4.48,18.55,23.33,25.88,39.41,15.17,.3,4.83,.05,9.18,.91,13.3,4.18,20.19,5.25,40.51,4.52,61.11-.41,11.65,2.67,23,8.17,33.56,3.21,6.16,5.78,12.65,8.72,18.96,6.23,13.38,12.67,26.67,23.57,37.05,12.9,12.28,25.24,25.28,39.08,36.42,26.54,21.38,53.86,41.81,81.1,62.31,7.87,5.92,16.54,10.78,26.39,13.02,7.18,1.63,14.26,3.68,21.46,5.2,26.68,5.62,53.17,5.56,79.01-4.09,18.4-6.87,33.41-17.85,44.48-34.77,8.56-13.07,17.67-25.88,27.03-38.42,11.59-15.52,23.87-30.54,36.19-45.5,8.38-10.18,14.74-21.36,18.47-33.95,8.58-28.94,17.23-57.86,24.01-87.3,.33-1.45,0-3.52,1.73-4.03,1.78-.52,2.45,1.54,3.51,2.56,5.7,5.46,13.8,6.64,18.8,1.77,8.82-8.59,16.8-17.66,14.66-31.7-1.43-9.41-1.1-18.87,2.17-28.13,1.26-3.57,1.42-7.65,.63-11.52-1.58-7.78-.48-15.34,1.11-23.02,2.79-13.55,3.51-27.01-5.32-39.04Zm-37.15-220.44c3.14-.53,6.77,5.12,7.2,9.95,.55,6.18-5.9,1.84-7.15,5.08-3.79-2.06-2.16-6.04-3.28-8.77,.33-2.73-.15-5.7,3.24-6.26Zm-5.42-31.53c1.58,.55,.76,1.9,.78,2.64-.72,4.43-2.67,7.92-5.34,11.06-.89,1.04-1.95,2.23-3.38,1.31-1.13-.72-.77-2.1-.18-3.15,1.97-3.5,2.69-7.68,5.73-10.59,.67-.64,1.29-1.65,2.39-1.27Zm-5.28-6.65c-1.61,5.17-6.86,2.88-9.77,4.68-1.76-.03-3.94-.38-3.16-1.79,2.22-3.97,6.95-3.29,10.61-4.59,1.11-.4,2.72,.39,2.31,1.7Zm-5.28-7.12c-4.98,3.74-9.3,1.78-13.59,.34-.96-.32-1.62-1.17-1.55-2.22,.09-1.24,1.18-1.46,2.13-1.43,4.38,.13,8.66,.66,13.01,3.31Zm-35.94-23.31c.31-.49,1.36-.93,1.93-.79,7.13,1.8,14.04,4.19,20.24,8.28,.43,.29,.66,.89,.9,1.23-.06,1.83-1.19,2.06-2.41,1.8-7.05-1.54-13.43-4.72-19.71-8.14-.85-.46-1.58-1.39-.95-2.38Zm-27.47-53.78c6.8,4.81,12.63,8.91,18.43,13.05,.85,.61,2.4,1.07,1.72,2.52-.73,1.56-2.07,1.35-3.44,.61-5.41-2.92-9.94-7.23-15.92-9.36-2.14-.76-.91-3.7-.8-6.82Zm-5.64,7.63c-2.4-8.85-6.96-14.94-14.83-18.93-.54,4.71,2.12,8.3,2.24,13.57-4.85-5.21-3.06-12.09-8.9-16.66,13.11,1.03,22.91,11.37,21.48,22.02Zm-22.72-2.2c2.74,.9,2.99-2.68,5.4-2.78,3.01,3.04,7.23,5.01,9.27,9.11,.76,1.52-.64,1.95-1.96,1.54-4.42-1.36-8.84-2.74-13.23-4.18-.95-.31-1.74-1.14-1.57-2.17,.16-.99,1.12-1.84,2.09-1.52Zm-20.04-27.14c1.88,.67,3.54,1.51,4.57,3.29,2.24,3.87,5.31,6.39,9.94,7.14,1.99,.32,4.44,1.94,3.62,4.3-.72,2.1-3,.37-4.59,.19-8.23-.93-12.97-6.98-17.71-12.67-2.19-2.63-3.77-3.5-7.19-2.49-7.07,2.07-12.81-1.03-15.47-7.37,10.31-2.61,17.99,4.46,26.83,7.61Zm-157.18-3.48c7.76-8.5,12.66-9.77,21.87-5.89,1.27,.53,2.84,.99,2.46,2.65-.35,1.55-1.8,1.8-3.9,1.25-.88-.16-2.5-.18-3.89-.75-4.45-1.84-7.82-.52-10.67,3.07-.83,1.04-1.91,1.9-2.97,2.73-1.44,1.13-3.37,2.05-4.68,.5-1.43-1.69,.89-2.59,1.78-3.56Zm-19.48,25.32c-.41,4.73-2.7,7.62-4.8,10.55-.77,1.08-1.82,2.3-3.36,1.29-1.62-1.07-1.32-2.58-.53-4.09,1.77-3.37,4.43-5.75,8.68-7.75Zm-26.42-10.3c2.44-5.4,6.07-3.43,9.61-3.33,2.18,.06,3.27,1.18,2.43,3.37-1.7,4.45,.14,7.34,5.85,9.57-9.13,1.29-16.03-1.56-23.64-1.31,2.51-2.85,4.63-5.82,5.75-8.3Zm-17.37,13.82c.32-1.22,1.52-1.67,2.81-1.42,6.82,1.31,13.64,2.59,20.44,3.98,1.58,.32,3.15,1.33,2.76,3.13-.39,1.79-2.24,1.85-4.2,1.82-6.38-1.63-13.13-3.31-19.84-5.09-1.1-.29-2.32-1.08-1.97-2.42Zm-32.78,33.27c.54-2.61,2.21-3.49,4.72-2.91,1.32,.31,2.59,.92,3.92,1.05,3.68,.36,7.97-.36,8.78-3.96,1.43-6.33,6.34-9.22,10.9-11.15,5.51-2.34,11.16-4.63,17.85-7.75-1.52,5.87-4.79,8.06-8.51,9.93-1.97,.99-6.05,.05-4.18,4.95,.56,1.46-2.32,2.22-4.12,1.4-5.18-2.37-7.16,.03-7.61,4.91-.19,2.05-.91,3.91-3.04,4.54-5,1.48-10.04,3.28-15.34,1.8-1.33-.37-3.99,.13-3.38-2.81Zm.42,22.92c5.36-1.2,10.49-4.36,16.92-2.66-2.87,4.11-7.28,3.69-10.65,5.7,2.18,2.15,4.77-.43,7.17,1.91-3.3,2.87-6.52,5.76-9.86,8.51-1.11,.92-2.66,2.41-4,.87-1.16-1.33-.1-2.85,1.14-3.96,.56-.5,1.04-1.07,2.47-2.57-3.37,.7-5.2,1.07-7.03,1.45,2.81-2.62-1.39-8.08,3.83-9.25Zm4.74,18.75c.72-.05,1.44,0,2.72,0-3.64,5.94-7.2,11.03-14.6,12,5.43-2.49,4.35-11.48,11.88-11.99Zm-11.73,92.88c1.83-2.59,4.23-6.67-1.96-8.39-2.04-.57,.2-2.07,.51-3.12,.66-2.3,4.86-4.08,.77-7.12-.98-.72,.75-1.91,1.24-2.89,2.39-4.79,6.29-9.05,4.24-15.25-.51-1.54,.86-3.68,1.26-5.57,.36-1.68,1.09-4.14-.91-4.65-6.35-1.61-1.79-4.18-.65-6.16,2.13-3.68,6.99-7.68,6.37-10.64-1.28-6.14,5.58-10.07,2.88-15.97-.34-.75,.92-2.49,1.77-3.49,5.21-6.11,9.69-13.2,11.9-20.44,2.88-9.41,10.24-12.85,16.77-17.82,1.34-1.02,3.07-1.97,4.7-2.12,10.97-1.03,19.62-7.8,29.47-11.58,8.64-3.31,16.27-7.8,21.9-15.49,2.18-2.98,6.18-5.12,9.59-4.93,6.38,.35,11.68-3.21,17.72-3.53,.19-.01,.45,0,.56-.11,6.89-6.71,14.89-1.27,22.32-2.06,1.34-.14,2.8,.05,4.02-.4,5.99-2.25,11.8-4.8,18.52-2.36,1.73,.63,4.35-.45,5.33-2.69,1-2.28-1.18-3.42-2.24-4.93-.98-1.4-2-2.78-3.03-4.22,.58-.33,.98-.72,1.18-.64,7.16,2.85,6.85,2.55,9.23-4.96,.96-3.02-4.07-6.66,1.24-8.69-1.18-1.68-3.02-2.42-4.81-3.1-5.96-2.24-12.19-3.54-18.45-5.15,12.13-1.95,24.21-4.27,36.49-2.55,6.21,.87,11.2,10.51,9.7,18.09-1.02,5.13-3.33,10.75,2.46,14.16,6.09,3.59,12.6,5.6,20.19,3.65,8.52-2.19,16.53,.95,22.99,6.4,4.15,3.5,8.39,4.81,13.3,4.12,6.41-.89,11.57,1.25,16.88,4.6,7.79,4.93,14.82,11.21,23.84,14.08,1.34,.43,2.48,1.45,2.8,2.79,4.44,18.53,20.85,26.17,33.79,36.84,4.4,3.62,7.9,7.34,8.85,13.03,.36,2.13,.69,4.31,2.22,5.89,6.62,6.8,9.92,15.62,14.49,23.66,3,5.27,4.8,10.97,5.13,17.1,.51,9.58,5.68,18.57,3.66,28.48-.04,.18-.01,.43,.09,.57,8.55,11.36,3.65,24.6,5.11,36.94,.66,5.62,1.38,11.32,3.99,16.28,2.23,4.24,1.22,8.68,2.22,12.95,.75,3.22-2.48,2.33-3.99,2.24-12.01-.66-24.03-.06-36.03-.36-39.5-.99-79-2.16-118.47-3.83-63.89-2.7-127.76-5.88-191.64-8.82-14.33-.66-28.66-1.19-42.98-1.81-2.09-.09-4.17-.32-6.7-.52,4.02-8.84,10.97-15.59,13.01-25.13-2.78,.37-2.72,3.39-5.83,3.63,1.98-8-2.45-16.29,3.01-24.03Zm-29.3-99.72c.1-.63,1.4-1.51,2.18-1.52,6.54-.13,13.09-.13,19.63-.04,1.11,.01,2.43,.72,2.23,2.06-.19,1.27-1.54,1.64-2.74,1.65-3.08,.05-6.17,.02-9.25,.02v-.12c-3.27,0-6.55,.08-9.82-.04-1.13-.04-2.43-.68-2.22-1.99Zm-25.39,148.14c1.36-2.51,3.31-4.66,6.43-3.97,37.57,8.35,75.87,7.3,113.96,8.94,32.14,1.38,64.28,2.72,96.42,4.02,24.38,.99,48.8,1.3,73.12,3.02,24.55,1.74,49.13,2.65,73.7,3.42,25.13,.79,50.26,1.72,75.42,1.43,11.4-.13,22.81,.97,34.22,1.51,1.8,.09,3.88,.3,3.83,2.57-.06,2.68-2.4,1.87-4,1.87-12.2,.02-24.4,.01-36.6,.01-26.15-.3-52.23-2.44-78.37-2.62-28.63-.19-57.26-1.73-85.88-2.93-78.6-3.29-157.09-8.47-235.58-13.69-5.49-.36-7.68,1.05-7.77,6.8-.14,8.51-1.17,17-1.67,25.51-.21,3.52-1.44,3.72-4.79,3.07-8.72-1.71-13.39-6.26-14.51-15.3-.76-6.11-2.86-12.05-8.02-16.33-2.76-2.29-1.19-4.96,.1-7.36Zm463.24,78.06c4.18,.4,8.37,.69,12.56,1.02-3.24,4.11-7.01,4.59-11.21,3.52-2.47-.63-5.31-1.16-6.57,1.82-.79,1.85-1.59,4.34-.26,6.13,1.21,1.64,3.49,1.17,5.43,.89,4.22-.61,7.13-3.26,10.01-7.25-1.54,11.27-2.94,12.67-11.51,11.59-2.99-.38-5.47-.26-6.68,2.93-.71,1.86-1.27,4.06,1.05,5.06,2.88,1.24,5.72,.72,7.99-1.66,.77-.81,1.42-1.73,2.34-2.87,.5,5.88-1.5,8.37-6.64,8.79-1.73,.14-3.51-.03-5.18,.36-2.31,.54-2.73,2.6-2.66,4.61,.08,2.4,2.1,1.62,3.49,1.92,1.78,.38,5.05-1.22,4.74,2.24-.26,2.89-3.17,2.12-5.23,1.92-4.2-.4-5.73,2.33-6.95,5.65-2.67,7.27-5.42,14.51-8.17,21.75-4.61,12.18-14.46,17.38-26.46,18.81-23.51,2.8-47.08,3.52-70.76,1.66-18.54-1.46-31.48-9.58-39.38-26.84-10-21.82-17.95-44.1-20.29-68.1-.41-4.21-.33-8.55,.12-12.76,1.8-16.69,7.47-21.66,24.1-24.9,26.12-5.09,52.5-2.24,78.78-1.66,18.61,.41,37.08,1.51,55.32,6.24,11,2.86,17.13,8.75,17.98,19.7,.47,6.02,2.85,8.14,8.64,7.27,2.27-.34,4.65-.07,6.97,.02,1.34,.05,2.11,.82,2.12,2.22,.01,1.53-.96,1.97-2.25,1.98-3.68,.03-7.37,.07-11.05,.04-3.14-.03-4.56,1.52-4.69,4.6-.14,3.28,2.26,3.12,4.32,3.32Zm-417.56,11.98c-2.04-.55-4.2-.7-6.29-1.07-3.84-.67-5.64-2.87-5.21-7.85,2.89,3.55,6.25,3.91,9.73,4.1,1.96,.11,3.44-.07,3.92-2.32,.42-1.99-.39-3.4-1.94-4.48-2.03-1.41-4.42-1.26-6.74-1.36-5.17-.23-8.79-2.23-10.15-7.7-1.24-5.02-5.25-7.43-9.82-9.03-3.8-1.33-7.66-2.55-10.91-6.91,7.42,1.92,13.62,4.63,20.27,5.41,3.84,.45,7.69,1.07,11.54,1.16,2.42,.05,6.02,2.01,6.26-3.25,.2-4.42-2-4.96-5.55-5.27-10.46-.9-20.77-2.54-30.16-7.74-2.02-1.12-4.26-1.92-4.7-5.08,2.71-.49,4.77,1.1,6.87,1.96,9.22,3.75,18.75,6.01,28.7,6.56,3.11,.17,4.87-.36,5.05-4.31,.59-12.74,9.05-21.05,21.9-21.7,29.84-1.52,59.65-1.26,89.45,1.07,16.49,1.29,32.57,4.61,48.46,8.98,12.92,3.55,18.39,10.42,19.59,24.02,.72,8.12-1.2,15.79-3.73,23.35-7.29,21.75-17.49,42.16-28.89,62-5.41,9.41-14.38,12.92-24.45,14.74-27.7,5.02-55.15,1.8-82.65-1.99-17-2.34-28.32-10.52-31.84-27.92-1.07-5.31-2.3-10.59-3.12-15.94-.76-4.95-2.52-8.38-8.27-8.5-2-.04-4.3-.69-4.77-3.49,2.06-1.05,4.14-.16,6.18-.17,1.77,0,4.11,1.31,4.5-1.85,.32-2.59-.57-4.69-3.24-5.42Zm17.74,61.16c17.8,7.32,36.79,8.74,55.59,11.07,12.93,1.61,25.96,.62,38.91,1.23,18.02,.85,30.69-7.53,40.8-21.29,10.09-13.73,16.45-29.33,22.8-44.96,2.77-6.81,6.08-13.4,8.93-20.18,1.93-4.59,5.42-6.79,10.06-7.84,9.12-2.07,18.12-1.2,27.05,1.01,4.89,1.21,7.21,5.01,8.59,9.43,5.65,18.1,11.97,36.03,17.09,54.24,6.53,23.25,22.49,33.09,44.51,36.45,15.97,2.43,31.99,2.92,48.1,1.48,6.34-.57,12.77-.18,19.14-.56,13.01-.78,24.15-6.42,34.61-13.74,1.54-1.08,3.22-1.96,4.84-2.94-4.54,9.92-12.4,14.79-22.58,17.26-24.91,6.05-49.93,5.25-75.07,2.42-6.35-.71-12.68-1.63-19.02-2.42-18.72-2.33-30.48-13.19-36.89-30.39-6.96-18.68-13.35-37.55-18.5-56.83-2.11-7.88-4.91-10.19-12.86-11.12-.38-.05-.77-.08-1.16-.12-19.61-2.05-21.8-.82-29.4,17.02-7.43,17.45-14.41,35-24.7,51.2-9.77,15.39-22.89,23.31-40.71,25.15-19.55,2.02-38.68-.5-57.82-3.76-10.87-1.85-21.72-3.81-32.63-5.45-5.21-.78-9.5-2.91-13.32-6.82,1.54-1.02,2.51,.02,3.62,.47Zm-78.54-155.35c2.07-3.8,5.62-2.7,8.78-2.38,2.19,.22,3.57,1.24,2.31,3.91-3.45,7.3-2.29,13.47,4.74,18.1,.69,.45,1.09,1.35,1.62,2.03-.18,.21-.37,.42-.55,.63-5.33-3.61-11.04-6.78-15.84-11-3.21-2.82-3.23-7.3-1.05-11.29Zm379.14,324.34c-1.03,8.07-2.59,16.06-3.99,24.08-.37,2.12,.41,4.87-2.74,5.72-.3,.08-.49,.55-.73,.84,6.06,3.6-2.22,7.6,.31,11.34,.28,.42,.16,1.11,.22,1.67-5.46-.73-3.58,5.69-6.68,6.96-6.47,2.64-4.8,6.84-2.39,11.24-8.26,2.64-11.85,18.21-7.05,29.65-3.84,0-4.03,.28-5.87,8.39-1.88,.16-1.39-4.04-3.6-2.35-2.44,1.86,.49,3.64,1.21,6.05-5.14-2.76-6.31,3.94-10.92,3.71-3.39-.17-7.01,.72-10.64,2.99-3.11,1.94-3.93,4.03-5.14,6.67-2.12,.74-2.28-2.39-4.46-2.08-1.26,3.85-3.07,6.85-8.34,6.65-2.97-.11-2.79,4.18-4.3,6.31-.72,1.01-.87,4.42-2.83,.44-.79-1.62-1.59,.49-1.95,1.35-2.19,5.23-5.61,5.67-10.24,3.01-4.18-2.4-8.42-.35-12.23,1.08-3.58,1.34-5.12,.74-6.64-2.67-1.57-3.54-6.95-4.36-7.02-9.38-.01-.76-2.01-.16-2.99,.55-3.13,2.28-6.28,4.54-9.42,6.81-.46,.33-1.29,.8-1.25,1.09,1.5,10.03-8.42,3.78-11.13,7.78-.07,.1-1.32-.28-1.34-.51-.68-7.04-4.48-1.12-7.24-1.91-.09-3.45-1.59-6.48-5.59-7.54-1.97,2.46-1.01,6.1-3.66,8.83-1.15-3.26-.96-6.24-.62-9.24,.27-2.38-.77-4.14-2.8-5.31-2.41-1.38-2.84,1.16-3.95,2.14-4.83,4.24-7.61,4.07-11.51-.94-.57-.73-.86-1.83-1.58-2.29-4.7-2.98-4.73-2.93-4.45-8.17-4.7,4.15-8.82-.8-13.4,1.26-.02-.57-.03-1.13-.05-1.7,1.43-1.14,2.87-2.28,4.72-3.76-2.29-.37-4.21-1.32-5.5-.78-4.26,1.79-5.41,.11-5.5-3.85-.07-3.06-2.83-2.61-4.75-3.16-1.05-2.14,3.19-2.52,1.36-5.42-3.07-4.86-4.06-5.2-8.45-.39-1.89,2.07-3.59,3.48-6.33,1.18-2.22-1.87-1.87-3.47-.12-5.32,.79-.84,1.39-1.84,2.7-3.61-6.42,1.81-3.83-4.03-6.4-5.58-2.23-1.35,.65-6.9-3.42-7.32-2.51-.26-5.27,2.1-7.94,3.21-.65,.27-1.4,.28-2.65,.5,1.17-4.94,6.04-6.34,7.98-10.35-3.97-.22-6.65,3.4-10.6,3.15,.87-3.01,4.47-5.5,.89-8.63-.26-.23-.21-1-.08-1.45,.36-1.26,4.4-.77,1.77-3.39-1.87-1.86-3.17-5.36-7.03-3.32-.82,.43-1.86,.61-2.66-.39-.33-1.03,.18-2.12,.95-2.45,3.52-1.5,5.37-4.54,7.54-7.38,1.68-2.19-.3-3.58-.83-5.25-.79-2.5-2.29-1.16-3.62-.44-1.48,.81-2.99,1.58-5.06,2.67,.58-4.66,.56-8.81,5.77-9.8-.45-2.23-2-1.93-3.25-2.01-2.12-.13-4.53,.23-5.6-2.14-1.02-2.27,1.55-3.26,2.25-4.93,.93-2.21,6.44-3.73,.91-7.18-1.25-.78,1.93-2.92,2.12-5.18-3.23-1.27-6.36,.7-9.56,.34,2.24-4.07,.75-9.16,3.99-12.86,.22-.25-.95-2.33-1.19-2.28-3.24,.72-3.97-.58-3.21-3.49,1.04-3.99,.69-8.77,5.65-10.57,5.49-2,6.55-5.44,2.33-9.72-4.2-4.26-5.5-8.78-3.7-14.52,.73-2.31,1.15-3.55,3.75-2.16,4.28,2.28,8.72,4.4,11.81,8.27,19.92,24.91,45.58,39.47,77.17,44.25,26.95,4.08,53.92,5.41,81.14,4.1,24.54-1.18,44.51-12.01,62.62-27.48,2.95-2.52,5.96-4.96,9.01-7.35,4.28-3.34,6.51-2.48,7.62,3.02,1.39,6.87,1.22,13.84,.34,20.71Zm-199.12-28.12c19.65,5.08,38.94,11.52,58.63,16.39,17.81,4.4,36.08,4.26,54.3,2.26,12.53-1.38,24.96-3.25,37.2-6.32,2.41-.61,5.31-1.61,7.17,.47,1.98,2.2-.1,4.67-.92,6.93-1.65,4.56-4.89,7.23-9.59,8.42-4.5,1.14-8.94,2.53-13.37,3.91-2.07,.64-4.76,1.81-6.15,.51-4.29-4.03-7.44-.78-11.1,.79-2.26,.97-4.83,1.66-7.28,1.7-27.36,.45-54.62-.52-81.39-6.97-2.25-.54-4.42-1.42-6.62-2.16-3.39-1.14-5.36-2.91-2.19-6.97-4.99,.44-8.77-.11-10.59-4.92-.98-2.59-2.86-.81-4.34-.18-7.43,3.14-19.45-3.88-19.84-11.77-.12-2.43-.79-3.41-3.24-3.69-2.33-.27-2.3-.53-4.91-3.45,9.14-1.26,16.5,3.05,24.22,5.05Zm-18.53-15.04c.83-1.77,2.78-.57,4.17-.24,17.04,3.99,34.41,6.42,51.38,10.86,8.66,2.26,17.68,2.26,26.58,2.41,5.15,.08,9.24,3.56,14.51,3.63,2.12,.03,4.06,2.06,5.99-.61,.51-.7,1.36-.36,2.11-.03,9.4,4.03,18.67,1.08,28.13,.05,4.48-.49,8.48-1.19,12.32-3.33,.31-.17,.98-.26,1.1-.1,4.81,6.56,10.58,1.47,15.89,1.24,4.24-.18,8.45-1.31,12.73-.7,6.72,.96,12.71-2.89,19.3-2.77,1.89,.04,3.83-.64,6.27,.88-4.15,3.19-8.82,3.94-13.14,5.5-36.49,13.14-73.88,16.92-112.15,10.27-8.75-1.52-16.96-5.26-25.58-7.55-14.57-3.87-28.89-8.69-43.3-13.16-1.45-.45-2.94-1.07-4.11-1.99-1.33-1.05-3.02-2.57-2.2-4.34Zm333.92-124.95c-1.18,9.4-3.4,18.69-2.7,28.28,.21,2.85-.98,5.34-3.07,7.26-1.72,1.59-3.84,2.94-2.97,5.74,.93,3.01,4.01,.15,5.86,2.46-4.65,10.22-4.6,21.2-2.21,32.47,1.15,5.42-1.15,10.28-5.03,14.25-1.76,1.8-3.52,3.59-5.26,5.42-2.5,2.63-4.65,6.26-9.11,4.64-4.51-1.64-8.35-4.13-9.07-9.56-.32-2.37-1-4.7-1.49-6.94-11.45,15.27-11.27,34-16.72,50.95-3.83,11.89-8.44,23.55-13.09,35.15-1.72,4.3,0,8.76-1.75,13.02-1.06,2.56-1.39,5.13-4.74,5.8-2.58,.52-2.99,2.78-3.03,5.01-.05,2.8-.85,5.31-2.76,7.94-1.55-2.67-1.24-5.07-1.68-7.31-.24-1.24,.23-3.21-1.48-3.25-.99-.02-2.48,1.37-2.93,2.46-1.05,2.54-4.05,4.94-.57,8.14,1.44,1.33,1.06,4.46-1.05,4.75-7.96,1.06-8.03,7.52-9.66,12.99-.99,3.34-1.69,6.77-2.9,10.03-1.59,4.29-4.89,5.12-8.99,3.7-.96-.33-2.26-.97-1.92-1.83,2.31-5.83-.62-13.2,6.02-17.9,3.88-2.74,2.68-7.5,.82-11.06-1.18-2.25-1.72-4.24-1.36-6.54,1.27-8.16,.19-16.26-.66-24.34-.36-3.47-.09-6.55,1.84-9.42,11.65-17.42,18.61-36.43,19.84-57.46,.13-2.26,1.53-4.47,1.57-6.72,.09-5.52-.82-10.56-5.92-14.29-5.14-3.76-9.65-8.38-14.51-12.54-1.54-1.32-2.92-3.13-6.29-2.82,7.26,7.19,12.26,15.31,17.6,23.21,3.43,5.07,3.15,9.96,.86,15.94-5.05-6.2-10.59-10.2-18.58-7.86-.54,.16-1.55-.1-1.68,.16-4.09,8.35-9.23,.54-13.81,.94-.37,.03-.74,.12-1.07,.17-1.17,1.48,1.1,2.84-.03,4.59-.65-.37-1.31-.64-1.86-1.07-3.96-3.12-8.05-4.63-12.31-.69-1.49,1.38-2.46,.05-3.63-.23-5.22-1.25-10.39-2.84-15.78-3.08-1.1-.05-2.05-.14-2.39-1.04-1.84-4.91-6.98-3.37-10.3-5.36-1.28-.77-3.18-.37-3.5,1-1.22,5.31-4.78,3.54-8.09,3.1-3.54-.46-6.98,.61-10.27,1.64-5.87,1.83-11.44,4.84-17.97,3.15-1.78-.46-3.22,1.01-4.73,1.89-11.99,7.06-25.82,5.62-36.25-3.46-2.89-2.52-6.05-4.81-9.97-5.75-1.25-.3-2.66-.99-3.45-1.95-5.02-6.09-11.58-8.35-18.42-5.17-5.81,2.7-11.39,2.17-16.86,.09-4.01-1.52-6.71-1.3-8.52,2.79-.68,1.53-1.85,2.72-3.48,2.7-2.81-.04-.05-3.14-2.26-4.03-3.19,5.63-7.79,1.5-9.81-.27-5.86-5.13-10.83,1.14-16.07,.02-1.99-.43-5.58,5.09-5.94-1.53-1.13,.13-2.25,.24-3.37,.4-1.32,.2-3.53,1.03-3.79-.06-1.63-6.7-5.42-2.06-8.46-1.98-4.88,.12-10.04,1.25-14.11-3.04-1.91-2.01-4-.09-5.88,.56-2.56,.89-3.75,.45-4.45-2.47-1.41-5.9-.48-10.95,3.38-15.75,5.52-6.87,12.65-11.93,18.87-18.11-7.75,3.63-14.93,8.08-20.76,14.45-7.54,8.23-9.58,18.53-11.87,29.07-1.59,7.33-.3,13.47,.73,20.57,1.38,9.52,8.2,15.94,9.7,24.78,.99,5.78,3.53,11.76-2.54,16.43-1.06,.82-.29,1.37,.04,2.29,.84,2.36,4.75,4.59,.79,7.47,5.14,4.23-4.79,9.29,.77,13.73,.9,.72-.65,2.37-1.96,3.02-1.64,.81-2.51-.03-3.19-1.41-2.23-4.51-4.44-9.03-6.75-13.51-9.5-18.45-18.98-36.89-21.64-57.92-.28-2.24-1.52-4.36-2.37-6.52-.35-.9-1.43-1.99-1.18-2.57,2.64-6.15-1.19-11.11-2.77-16.49-.46-1.56,.08-2.59,2.07-2.38,1.16,.12,2.83,1.35,3.42-.73,.47-1.65-.54-3.09-1.6-4.17-3.83-3.9-8.65-4.73-13.65-4.28,1.35,6.65,2.68,13.12,4.66,19.49,1.71,5.48,.35,11.24,4.47,16.95,2.5,3.47,4.79,8.9,6.15,13.8,5.47,19.64,15.49,37.37,23.18,56.07,4.62,11.24,11.15,22.16,10.31,35.51-4.35-1.67-7.44-3.64-8.43-8.88-1.19-6.28-3.42-11.94-8.38-17.16-5.11-5.38-7.33-13.46-10.99-20.26-3.31-6.14-6.86-12.15-10.32-18.21-.18-.31-.73-.66-.66-.83,2.84-8.04-6.78-8.94-8.42-14.53-.49-1.68-2.77-3.61-5.14-1.32-2.12,2.05-.37,3.44,.98,4.82,1.92,1.99,2.86,3.87,.9,6.61-1.59,2.24-1.13,5.22-1.55,7.89-.36,2.3,.33,3.53,2.71,4.17,3.94,1.06,5.76,3.92,6.84,7.86,.71,2.58-.1,7.96,5.97,5.36,1.35-.58,1.42,1.45,1.47,2.52,.09,2.13,.27,4.29-.01,6.39-.43,3.23,.59,5.19,3.89,5.86,3.64,.74,5.47,3.32,6.66,6.62,2.38,6.62,5.83,12.66,10.07,18.25,.12,.15,.28,.3,.34,.47,3.2,8.74,7.47,17.12,8.93,26.42,.22,1.38,.38,3.04-1.77,4.85-.43-5.6-4.49-7.45-7.93-10.22-3.04-2.46-6.39-5.6-4.89-10.88,1.06-3.75-2.03-5.15-5.12-5.53-5.79-.72-7.97-3.86-7.02-9.48,.34-2.02-.34-3.81-1.48-5.46-7.17-10.34-15.99-18.86-27.17-24.81-1.67-.89-3.15-.98-4.97-.46-5.51,1.59-8.66-.83-10.7-6.01-4-10.13-5.36-20.65-4.9-31.37,1.11-25.97-5.76-51.12-7.43-76.8-.27-4.15-2.67-4.37-5.54-2.99-2.42,1.16-4.6,2.85-6.79,4.44-9.24,6.75-24.53,1-26.72-10.46-2.14-11.2-3.5-22.56-5.27-33.83-.35-2.21-.35-3,2.54-2.62,5.36,.72,7.15-1.36,4.46-5.62-10.18-16.13-8.01-31.3,1.41-46.92,6.11-10.13,7.02-21.39,4.01-33.08-2.02-7.84-3.01-15.94-3.51-24.61,4.91,2.54,2.16,7.59,4.72,11.32,2.13-5.17,2.06-10.89,6.9-14.22,1.26-.86-.73-1.82-1.55-2.42-2.97-2.17-6.13-4.1-8.98-6.42-2.64-2.15-3.77-5.1-1.97-8.28,1.83-3.22,4.79-4.26,8.46-3.37,9.9,2.41,13.44,7.36,12.27,17.32-.85,7.28,6.28,16.5,13.7,17.71,4.43,.73,7.63,4.92,5.9,8.94-1.44,3.36-.13,5.75,.26,8.81,1.27,9.89,7.03,18.97,5.21,29.35-.23,1.28-.03,2.64,.75,3.99,.9-9.81,5-19.36,1.91-29.43-2.15-7.01,2.29-12.56,3.46-18.93,2.56,.79,3.01,2.57,3.49,4.17,4.97,16.5,9.87,33.03,14.82,49.53,1.33,4.44,2.03,8.22-4.11,9.88-3.29,.89-8.57,16.23-7.08,19.22,.76,1.53,1.64,3.35,3.68,.76,3.79-4.79,9.92-7.58,11.34-13.84,1.85-.34,2.18,.65,2.47,1.53,4.13,12.31,13.62,18.58,25.41,21.6,25.98,6.66,52.54,9.72,79.25,11.48,6.8,.45,13.52-.49,20.22-1.74,14.86-2.77,25.97-10.49,34.87-22.9,13.13-18.31,22.11-38.53,30.44-59.2,4.16-10.31,10.24-13.19,21.13-11.26,8.23,1.46,13.36,4.94,14.77,14.05,2.64,17.08,8.48,33.29,14.99,49.3,9.83,24.14,28.34,36,53.47,38.65,24.55,2.58,49.1,2.22,73.56-1.21,8.87-1.24,17.3-4.3,25.47-7.83,5.71-2.47,9.27-7.42,11.78-13.12,3.18-7.24,3.25-7.18,10.58-4.53,1.01,.37,2.01,1.24,3.62,.39-3.09-18.19,2.15-35.13,8.89-51.81,1.43,3.86,.03,7.49-.77,11.08-1.25,5.61-.71,10.48,3.03,15.24,5.65,7.18,6,15.75,4.92,24.41Z"/><path d="M547.14,617.12c-7.84,7.73-18.05,6.17-25.79-2.06-3.44-3.66-6.47-7.61-10.62-10.67-8.01-5.9-17.16-8.69-26.62-10.93-10.64-2.52-21.53-2.43-32.97-4.11,2.86,5.03,6.87,6.92,10.87,8.84,2.1,1.01,4.15,2.62,4.21-1.85,.04-3.03,2.59-3.5,5.17-2.93,2.34,.51,4.05,2.2,6.05,3.35,9.19,5.29,18.24,11.19,28.9,12.88,5.97,.95,9.73,3.16,10.75,9.34,.63,3.86,2.53,7.28,6.42,8.29,11.71,3.03,23.36,3.84,32.16-6.56,8.41-9.94,20.64-9.66,31.56-12.96,1.27-.39,2.15,.51,3.15,1.09,5.39,3.18,9.92,1.7,14.21-2.76-2.29-1.98-4.54-1.75-6.58-1.98-18.55-2.01-36.17-1.47-50.87,13.01Z"/><path d="M281.29,502.29c-1.33-.43-2.2,.46-2.84,1.45-3.13,4.84-6.94,9.35-7.96,15.28-.59,3.42,.07,8.07-1.92,9.97-2.69,2.56-6.64-1-10.1-1.69-2.08-.42-3.41,.05-4.01,2.1-.55,1.9-.11,3.53,1.84,4.3,1.42,.56,2.95,.87,4.45,1.24,7.2,1.76,7.42,2.16,5.22,8.93-.35,1.09-.45,2.25-.67,3.41,.38,1.27-.1,3.07,1.39,3.57,1.31,.44,2.51-.74,3.51-1.65,4.56-4.17,4.91-9.89,5.36-15.45,.68-8.5,1.01-17.01,6.85-24.07,.88-1.06,1.08-2.88,1.15-4.37,.07-1.41-.87-2.57-2.27-3.03Z"/><path d="M699.65,622.1c-1.06,1.76-.22,3.5,.31,5.01,2.78,7.93,2.02,15.54-1.46,23.05-.67,1.45-2.12,3.4,.51,4.28,2.16,.73,3.66-.69,4.57-2.61,4.05-8.59,2.47-17.41,.83-26.16-.4-2.11-2.3-3.5-4.76-3.58Z"/><path d="M349.9,606.14c-1.91,.06-3.54,.75-3.63,2.91-.4,9.66,.86,19,6.35,27.56,0-9.19,0-18.38,0-27.57,0-1.84-.76-2.96-2.72-2.9Z"/><path d="M275.59,471.99c-1.6-2.15-2.31-1.81-3.76-.13-3.71,4.29-3.25,8.18,2.07,14.48,2.39-4.65,5.79-8.85,1.69-14.35Z"/><path d="M569.8,762.83c-3.38-.67-1.94-2.36-1.31-4.17,1.31-3.78-2.05-8.62-3.34-7.74-3.83,2.61-6.97,.04-10.17,.06-5,.03-10.23,2.5-15.36-1.06-1.72-1.19-6.17-1.9-7.8,1.26-1.99,3.86-3.51,1.85-4.92,.11-2.64-3.25-5.29-3.8-9.6-2.87-2.69,.58-6.83,3.04-9.95-1.67-2.14-3.23-8.03-1.75-10.77,1.69-.76,.95-1.08,2.64-3.2,2.18-.26-1.96-.52-3.99-.82-6.23-.99,.23-1.76,.32-2.45,.59-3.06,1.2-8.52,1.23-3.17,6.6,1.43,1.44,.27,2.86-.83,4.03-1.46,1.55-3.14,2.93-4.34,4.66-1.53,2.21-4.79,4.35-2.06,7.49,2.39,2.76,5.41,4.65,9.72,.16-1,3.69-1.67,5.88-2.19,8.11-1.03,4.42-2.08,9.18,2.42,12.14,2.78,1.83,3.54,3.26,2.21,6.29-.72,1.63,.06,3.61,1.49,4.72,2.11,1.64,2.39-1.06,3.37-1.86,2.18-1.78,4.59-2.65,7.33-3.18,6.5-1.28,9,3.64,11.91,8.3,1.36-1.88,2.14-3.21,3.16-4.33,1.97-2.16,4.03-3.39,5.68,.36,2.2,5.01,4.08,3.54,6.02-.21,.55-1.07,.63-2.77,2.86-2.67,.56,1.64,1.15,3.4,1.87,5.53,4.43-2.96,7.97-6.5,13.11-8.05,3.56-1.08,8.24-3.21,9.4-7.07,1.33-4.42,4.04-7.37,6.86-10.5,2.49-2.77,4.6-5.73,5.54-9.4,.32-1.23,1.4-2.88-.67-3.29Z"/><path d="M338.09,506.2c1.36,7,3.7,13.76,11.46,16.14,8.86,2.73,17.73,5.69,26.82,7.33,25.04,4.53,50.24,5.94,75.51,1.49,5.51-.97,10.7-2.81,13.77-7.73,6.14-9.85,13.03-19.23,18.35-29.59,8.95-17.44,13.22-36.32,16.85-55.36,1.41-7.39-1.71-13.39-7.71-17.61-5.42-3.81-11.39-6.55-18.13-7.32-12.12-1.37-24.28-2.28-36.41-3.41-18.86-1.75-37.56-5.29-56.64-3.77-11.94,1.15-24.03-.96-35.92,1.57-10.5,2.24-14.8,7.28-15.35,17.99-.51,9.9,.81,19.7,1.51,29.53,1.2,17,2.66,33.98,5.91,50.73Z"/><path d="M322.52,444.61c-1.72-.08-3.48-.44-5.15-.19-1.97,.3-5.07-2.03-5.73,1.41-.52,2.71,1.17,5.13,3.68,6.64,2.04,1.23,4.37,1.29,6.35,1.62,2.83,0,5.14,.16,5.27-3.67,.12-3.49-.61-5.63-4.42-5.8Z"/><path d="M725.66,426.39c-13.74-4.27-27.91-6.7-42.17-7.99-23.75-2.15-47.6-.11-71.4-.58-8.13,.33-16.29,.67-24.18,2.7-18.01,4.64-23.63,12.38-21.35,30.67,3.33,26.77,12.02,51.95,24.17,75.96,2.12,4.19,5.02,7.96,9.61,9.72,7.42,2.84,14.94,5.48,22.92,6.21,24.64,2.25,49.15,.24,73.59-2.83,8.44-1.06,14.22-5.77,18.12-13.66,13.53-27.3,18.06-56.63,20.37-86.51,.61-7.83-1.97-11.3-9.68-13.69Z"/></svg>